<?xml version="1.0" standalone="no"?><!DOCTYPE svg PUBLIC "-//W3C//DTD SVG 1.1//EN" "http://www.w3.org/Graphics/SVG/1.1/DTD/svg11.dtd"><svg width="100%" height="100%" viewBox="0 0 375 86" version="1.1" xmlns="http://www.w3.org/2000/svg" xmlns:xlink="http://www.w3.org/1999/xlink" xml:space="preserve" style="fill-rule:evenodd;clip-rule:evenodd;stroke-linejoin:round;stroke-miterlimit:1.41421;"><g id="Logo"><path id="Frame" d="M375,21.485c0,-11.858 -9.627,-21.485 -21.485,-21.485l-332.03,0c-11.858,0 -21.485,9.627 -21.485,21.485l0,42.97c0,11.858 9.627,21.485 21.485,21.485l332.03,0c11.858,0 21.485,-9.627 21.485,-21.485l0,-42.97ZM291.305,79.256l6.171,-72.572l-272.642,0c-10.013,0 -18.143,8.13 -18.143,18.143l0,36.286c0,10.013 8.13,18.143 18.143,18.143l266.471,0ZM338.189,17.505l10.658,0c2.337,0 4.328,0.357 5.973,1.073c1.646,0.715 2.993,1.669 4.042,2.861c1.049,1.192 1.8,2.563 2.253,4.113c0.453,1.55 0.68,3.159 0.68,4.828l0,1.86c0,1.383 -0.107,2.552 -0.322,3.505c-0.215,0.954 -0.537,1.789 -0.966,2.504c-0.429,0.715 -0.954,1.347 -1.573,1.896c-0.62,0.548 -1.336,1.061 -2.146,1.537c1.716,0.811 2.98,2.015 3.791,3.613c0.81,1.597 1.216,3.731 1.216,6.402l0,2.861c0,4.483 -1.085,7.917 -3.255,10.301c-2.17,2.384 -5.639,3.577 -10.408,3.577l-9.943,0l0,-50.931ZM307.716,17.505l10.802,0c4.149,0 7.32,1.156 9.514,3.469c2.193,2.313 3.29,5.544 3.29,9.693l0,23.82c0,4.769 -1.156,8.286 -3.469,10.551c-2.313,2.265 -5.639,3.398 -9.979,3.398l-10.158,0l0,-50.931ZM315.013,61.568l3.362,0c2.05,0 3.505,-0.512 4.363,-1.537c0.859,-1.026 1.288,-2.635 1.288,-4.829l0,-24.535c0,-2.003 -0.406,-3.553 -1.216,-4.65c-0.811,-1.097 -2.289,-1.645 -4.435,-1.645l-3.362,0l0,37.196ZM345.485,61.139l3.148,0c1.478,0 2.635,-0.214 3.469,-0.643c0.835,-0.43 1.467,-1.026 1.896,-1.789c0.429,-0.763 0.691,-1.669 0.787,-2.718c0.095,-1.049 0.143,-2.194 0.143,-3.434c0,-1.287 -0.072,-2.408 -0.215,-3.362c-0.143,-0.953 -0.441,-1.752 -0.894,-2.396c-0.453,-0.644 -1.085,-1.133 -1.896,-1.466c-0.81,-0.334 -1.883,-0.501 -3.219,-0.501l-3.219,0l0,16.309ZM345.485,38.392l3.291,0c2.432,0 4.065,-0.608 4.9,-1.824c0.834,-1.216 1.252,-2.993 1.252,-5.329c0,-2.289 -0.465,-4.006 -1.395,-5.151c-0.93,-1.144 -2.611,-1.716 -5.043,-1.716l-3.005,0l0,14.02Z" style="fill:#fff;"/><g id="WETTKAMPF"><path d="M263.461,17.505l0,50.931l7.296,0l0,-21.746l12.59,0l0,-6.867l-12.59,0l0,-15.451l14.45,0l0,-6.867l-21.746,0Z" style="fill:#fff;"/><path d="M68.321,24.372l0,14.95l12.59,0l0,6.867l-12.59,0l0,14.95l14.449,0l0,7.297l-21.745,0l0,-50.931l70.745,0l0,6.867l-8.441,0l0,44.064l-7.296,0l0,-44.064l-16.453,0l0,44.064l-7.296,0l0,-44.064l-23.963,0Z" style="fill:#fff;"/><path d="M48.864,68.436l7.582,-50.931l-7.725,0l-3.505,33.119l-0.143,0l-5.937,-33.119l-5.58,0l-5.722,32.332l-0.144,0l-3.648,-32.332l-7.725,0l7.582,50.931l6.867,0l5.508,-33.048l0.143,0l5.58,33.048l6.867,0Z" style="fill:#fff;"/><path d="M194.575,17.505l0,50.931l7.297,0l0,-30.974l0.143,0l7.153,21.889l3.648,0l7.225,-21.889l0.143,0l0,30.974l7.296,0l0,-50.931l-7.081,0l-9.3,26.967l-0.143,0l-9.37,-26.967l-7.011,0Z" style="fill:#fff;"/><path d="M234.347,17.505l0,50.931l7.297,0l0,-19.886l3.719,0c2.719,0 4.912,-0.465 6.581,-1.395c1.669,-0.93 3.005,-2.23 4.006,-3.899c0.859,-1.383 1.419,-2.873 1.681,-4.471c0.262,-1.597 0.394,-3.517 0.394,-5.758c0,-3.052 -0.239,-5.472 -0.716,-7.26c-0.477,-1.789 -1.335,-3.351 -2.575,-4.686c-1.24,-1.335 -2.623,-2.265 -4.149,-2.79c-1.526,-0.524 -3.29,-0.786 -5.293,-0.786l-10.945,0ZM241.644,41.682l0,-17.31l3.791,0c1.431,0 2.527,0.226 3.29,0.679c0.763,0.453 1.324,1.073 1.681,1.86c0.358,0.787 0.573,1.717 0.644,2.79c0.072,1.073 0.108,2.205 0.108,3.398c0,1.287 -0.036,2.456 -0.108,3.505c-0.071,1.049 -0.298,1.943 -0.679,2.682c-0.382,0.739 -0.978,1.324 -1.789,1.753c-0.81,0.429 -1.955,0.643 -3.433,0.643l-3.505,0Z" style="fill:#fff;"/><path d="M176.621,32.169l3.576,18.455l-7.296,0l3.577,-18.455l0.143,0ZM154.517,68.436l14.951,0l2.146,-10.945l9.943,0l2.146,10.945l7.296,0l-11.374,-50.931l-6.08,0l-11.348,50.813l-11.757,-30.427l9.943,-20.386l-7.296,0l-10.659,23.248l-0.143,0l0,-23.248l-7.296,0l0,50.931l7.296,0l0,-15.237l3.935,-7.368l8.297,22.605Z" style="fill:#fff;"/></g></g></svg>